<svg xmlns="http://www.w3.org/2000/svg" width="350" height="350" fill="none" viewBox="0 0 350 350"><rect width="350" height="350" fill="#11191F" rx="20"/><path fill="#1AB3E6" fill-opacity=".13" d="M202.641 218.797C202.641 218.797 230.17 191.502 239.507 181.892C269.057 153.059 254.33 93.6642 254.33 93.6642C254.33 93.6642 195.133 78.9596 166.256 108.465C143.732 130.378 129.101 145.563 129.101 145.563C129.101 145.563 92.1389 137.874 70 159.979L187.914 278C210.052 255.607 202.641 218.797 202.641 218.797ZM188.202 132.3C189.99 130.513 192.113 129.095 194.451 128.127C196.788 127.16 199.293 126.662 201.823 126.662C204.352 126.662 206.858 127.16 209.195 128.127C211.532 129.095 213.655 130.513 215.443 132.3C218.133 134.989 219.964 138.414 220.705 142.142C221.446 145.87 221.064 149.734 219.606 153.245C218.149 156.756 215.681 159.756 212.516 161.868C209.35 163.979 205.629 165.106 201.823 165.106C198.016 165.106 194.295 163.979 191.129 161.868C187.964 159.756 185.497 156.756 184.039 153.245C182.581 149.734 182.199 145.87 182.94 142.142C183.681 138.414 185.512 134.989 188.202 132.3ZM79.6256 268.389C97.4432 267.882 114.501 261.069 127.754 249.167L98.8768 220.335C79.6256 229.946 79.6256 268.389 79.6256 268.389Z"/><path fill="#1AB3E6" d="M109.672 248.855C105.454 248.855 102.433 247.943 100.609 246.119C98.785 244.181 97.873 240.59 97.873 235.346C97.873 231.812 98.215 227.309 98.899 221.837C99.697 216.251 100.951 208.613 102.661 198.923C105.625 181.025 107.962 165.521 109.672 152.411C110.698 144.203 111.211 137.363 111.211 131.891C111.211 126.761 109.33 124.196 105.568 124.196C102.604 124.196 99.013 125.735 94.795 128.813C90.691 131.777 86.131 136.565 81.115 143.177C79.519 145.343 77.752 146.426 75.814 146.426C74.218 146.426 72.793 145.685 71.539 144.203C70.399 142.607 69.829 140.84 69.829 138.902C69.829 137.078 70.171 135.254 70.855 133.43C71.653 131.492 72.907 129.326 74.617 126.932C80.089 119.294 86.188 113.423 92.914 109.319C99.64 105.101 106.366 102.992 113.092 102.992C119.362 102.992 124.15 104.987 127.456 108.977C130.876 112.967 132.586 118.781 132.586 126.419C132.586 129.497 132.301 133.145 131.731 137.363C131.161 141.467 130.648 144.83 130.192 147.452C129.736 150.074 129.394 151.898 129.166 152.924C135.664 134.342 142.96 121.403 151.054 114.107C159.148 106.697 168.04 102.992 177.73 102.992C185.14 102.992 190.954 105.614 195.172 110.858C199.504 116.102 201.67 123.512 201.67 133.088C201.67 136.85 201.157 141.524 200.131 147.11C205.831 131.378 212.5 120.092 220.138 113.252C227.776 106.412 236.554 102.992 246.472 102.992C254.452 102.992 260.551 105.557 264.769 110.687C269.101 115.817 271.267 122.999 271.267 132.233C271.267 137.249 270.526 143.348 269.044 150.53L258.613 199.436C257.473 205.136 256.903 210.038 256.903 214.142C256.903 218.93 257.986 222.521 260.152 224.915C262.432 227.309 265.567 228.506 269.557 228.506C273.319 228.506 276.967 227.252 280.501 224.744C284.149 222.236 288.424 218.075 293.326 212.261C294.694 210.665 296.233 209.867 297.943 209.867C299.425 209.867 300.565 210.551 301.363 211.919C302.275 213.287 302.731 215.168 302.731 217.562C302.731 222.008 301.648 225.542 299.482 228.164C293.554 235.346 287.683 240.59 281.869 243.896C276.055 247.202 269.956 248.855 263.572 248.855C253.882 248.855 246.301 246.005 240.829 240.305C235.357 234.491 232.621 226.739 232.621 217.049C232.621 210.323 233.989 200.576 236.725 187.808L243.565 156.515C243.793 155.489 244.192 153.665 244.762 151.043C245.332 148.421 245.788 145.97 246.13 143.69C246.472 141.296 246.643 138.959 246.643 136.679C246.643 132.689 245.845 129.725 244.249 127.787C242.767 125.735 240.601 124.709 237.751 124.709C232.393 124.709 226.75 128.186 220.822 135.14C215.008 141.98 209.422 153.38 204.064 169.34C198.82 185.3 194.545 206.048 191.239 231.584C190.441 238.424 189.016 243.041 186.964 245.435C185.026 247.715 181.834 248.855 177.388 248.855C173.512 248.855 170.662 247.943 168.838 246.119C167.128 244.295 166.273 240.875 166.273 235.859C166.273 231.185 166.9 225.086 168.154 217.562C169.408 209.924 171.004 200.975 172.942 190.715C178.186 163.127 180.808 145.343 180.808 137.363C180.808 133.031 179.953 129.839 178.243 127.787C176.647 125.735 174.196 124.709 170.89 124.709C165.304 124.709 159.547 127.901 153.619 134.285C147.691 140.555 141.877 151.784 136.177 167.972C130.591 184.046 125.917 205.82 122.155 233.294C121.357 239.108 120.16 243.155 118.564 245.435C117.082 247.715 114.118 248.855 109.672 248.855Z"/></svg>